<svg width="1200" height="630" viewBox="0 0 1200 630" xmlns="http://www.w3.org/2000/svg">
  <defs>
    <linearGradient id="bg" x1="0" y1="0" x2="1" y2="1">
      <stop offset="0" stop-color="#040611"/>
      <stop offset="1" stop-color="#070A12"/>
    </linearGradient>
    <radialGradient id="glow1" cx="20%" cy="20%" r="60%">
      <stop offset="0" stop-color="rgba(124,58,237,0.55)"/>
      <stop offset="1" stop-color="rgba(124,58,237,0)"/>
    </radialGradient>
    <radialGradient id="glow2" cx="80%" cy="30%" r="60%">
      <stop offset="0" stop-color="rgba(34,211,238,0.35)"/>
      <stop offset="1" stop-color="rgba(34,211,238,0)"/>
    </radialGradient>
    <linearGradient id="g" x1="0" y1="0" x2="1" y2="0">
      <stop offset="0" stop-color="#7C3AED"/>
      <stop offset="0.5" stop-color="#3B82F6"/>
      <stop offset="1" stop-color="#22D3EE"/>
    </linearGradient>
    <filter id="soft" x="-20%" y="-20%" width="140%" height="140%">
      <feGaussianBlur stdDeviation="18"/>
    </filter>
  </defs>

  <rect width="1200" height="630" fill="url(#bg)"/>
  <rect width="1200" height="630" fill="url(#glow1)"/>
  <rect width="1200" height="630" fill="url(#glow2)"/>

  <g opacity="0.20">
    <path d="M0 120h1200" stroke="rgba(148,163,184,0.25)"/>
    <path d="M0 240h1200" stroke="rgba(148,163,184,0.22)"/>
    <path d="M0 360h1200" stroke="rgba(148,163,184,0.18)"/>
    <path d="M0 480h1200" stroke="rgba(148,163,184,0.14)"/>
    <path d="M160 0v630" stroke="rgba(148,163,184,0.14)"/>
    <path d="M320 0v630" stroke="rgba(148,163,184,0.18)"/>
    <path d="M480 0v630" stroke="rgba(148,163,184,0.22)"/>
    <path d="M640 0v630" stroke="rgba(148,163,184,0.18)"/>
    <path d="M800 0v630" stroke="rgba(148,163,184,0.14)"/>
    <path d="M960 0v630" stroke="rgba(148,163,184,0.12)"/>
  </g>

  <circle cx="970" cy="130" r="90" fill="url(#g)" opacity="0.25" filter="url(#soft)"/>
  <circle cx="240" cy="470" r="110" fill="url(#g)" opacity="0.18" filter="url(#soft)"/>

  <text x="90" y="250" fill="white" font-size="64" font-family="Inter, system-ui" font-weight="700">
    Gummadi Tejaswi
  </text>
  <text x="90" y="310" fill="rgba(255,255,255,0.78)" font-size="34" font-family="Inter, system-ui" font-weight="500">
    AI &amp; Software Engineer " Generative AI " LLMs " Edge AI
  </text>
  <text x="90" y="390" fill="url(#g)" font-size="26" font-family="Inter, system-ui" font-weight="600">
    Architecting Intelligence at the Edge
  </text>
</svg>
